<svg width="19" height="18" viewBox="0 0 19 18" fill="none" xmlns="http://www.w3.org/2000/svg">
<path d="M2.75 10.5H5C5.39782 10.5 5.77936 10.658 6.06066 10.9393C6.34196 11.2206 6.5 11.6022 6.5 12V14.25C6.5 14.6478 6.34196 15.0294 6.06066 15.3107C5.77936 15.592 5.39782 15.75 5 15.75H4.25C3.85218 15.75 3.47064 15.592 3.18934 15.3107C2.90804 15.0294 2.75 14.6478 2.75 14.25V9C2.75 7.20979 3.46116 5.4929 4.72703 4.22703C5.9929 2.96116 7.70979 2.25 9.5 2.25C11.2902 2.25 13.0071 2.96116 14.273 4.22703C15.5388 5.4929 16.25 7.20979 16.25 9V14.25C16.25 14.6478 16.092 15.0294 15.8107 15.3107C15.5294 15.592 15.1478 15.75 14.75 15.75H14C13.6022 15.75 13.2206 15.592 12.9393 15.3107C12.658 15.0294 12.5 14.6478 12.5 14.25V12C12.5 11.6022 12.658 11.2206 12.9393 10.9393C13.2206 10.658 13.6022 10.5 14 10.5H16.25" stroke="white" stroke-width="2" stroke-linecap="round" stroke-linejoin="round"/>
</svg>
