<svg width="16" height="17" viewBox="0 0 16 17" fill="none" xmlns="http://www.w3.org/2000/svg">
<g clip-path="url(#clip0_817_445)">
<path d="M5.33329 15.1666C5.70148 15.1666 5.99996 14.8682 5.99996 14.5C5.99996 14.1318 5.70148 13.8333 5.33329 13.8333C4.9651 13.8333 4.66663 14.1318 4.66663 14.5C4.66663 14.8682 4.9651 15.1666 5.33329 15.1666Z" stroke="white" stroke-width="2" stroke-linecap="round" stroke-linejoin="round"/>
<path d="M12.6667 15.1666C13.0349 15.1666 13.3333 14.8682 13.3333 14.5C13.3333 14.1318 13.0349 13.8333 12.6667 13.8333C12.2985 13.8333 12 14.1318 12 14.5C12 14.8682 12.2985 15.1666 12.6667 15.1666Z" stroke="white" stroke-width="2" stroke-linecap="round" stroke-linejoin="round"/>
<path d="M1.3667 1.86664H2.70003L4.47337 10.1466C4.53842 10.4499 4.70715 10.721 4.95051 10.9132C5.19387 11.1055 5.49664 11.2069 5.8067 11.2H12.3267C12.6301 11.1995 12.9244 11.0955 13.1607 10.9052C13.3971 10.7149 13.5615 10.4497 13.6267 10.1533L14.7267 5.19997H3.41337" stroke="white" stroke-width="2" stroke-linecap="round" stroke-linejoin="round"/>
</g>
<defs>
<clipPath id="clip0_817_445">
<rect width="16" height="16" fill="white" transform="translate(0 0.5)"/>
</clipPath>
</defs>
</svg>
